<?xml version="1.0" standalone="no"?>
<!-- Generator: Adobe Fireworks 10, Export SVG Extension by Aaron Beall (http://fireworks.abeall.com) . Version: 0.6.1  -->
<!DOCTYPE svg PUBLIC "-//W3C//DTD SVG 1.1//EN" "http://www.w3.org/Graphics/SVG/1.1/DTD/svg11.dtd">
<svg id="Untitled-%u9875%u9762%201" viewBox="0 0 576 114" style="background-color:#ffffff00" version="1.1"
	xmlns="http://www.w3.org/2000/svg" xmlns:xlink="http://www.w3.org/1999/xlink" xml:space="preserve"
	x="0px" y="0px" width="576px" height="114px"
>
	<g id="%u5C42%201">
		<path opacity="0.251" d="M 10 4 C 4.4771 4 0 8.4771 0 14 L 0 104 C 0 109.5229 4.4771 114 10 114 L 130 114 C 130.4921 110.0536 133.9203 107 138 107 C 142.0797 107 145.5079 110.0536 146 114 L 280 114 C 280.4921 110.0536 283.9203 107 288 107 C 292.0797 107 295.5079 110.0536 296 114 L 430 114 C 430.4921 110.0536 433.9203 107 438 107 C 442.0797 107 445.5079 110.0536 446 114 L 566 114 C 571.5229 114 576 109.5229 576 104 L 576 14 C 576 8.4771 571.5229 4 566 4 L 446 4 C 445.5079 7.9464 442.0797 11 438 11 C 433.9203 11 430.4921 7.9464 430 4 L 296 4 C 295.5079 7.9464 292.0797 11 288 11 C 283.9203 11 280.4921 7.9464 280 4 L 146 4 C 145.5079 7.9464 142.0797 11 138 11 C 133.9203 11 130.4921 7.9464 130 4 L 10 4 Z" fill="#000000"/>
		<path d="M 10 0 C 4.4771 0 0 4.4771 0 10 L 0 100 C 0 105.5229 4.4771 110 10 110 L 130 110 C 130.4921 106.0536 133.9203 103 138 103 C 142.0797 103 145.5079 106.0536 146 110 L 280 110 C 280.4921 106.0536 283.9203 103 288 103 C 292.0797 103 295.5079 106.0536 296 110 L 430 110 C 430.4921 106.0536 433.9203 103 438 103 C 442.0797 103 445.5079 106.0536 446 110 L 566 110 C 571.5229 110 576 105.5229 576 100 L 576 10 C 576 4.4771 571.5229 0 566 0 L 446 0 C 445.5079 3.9464 442.0797 7 438 7 C 433.9203 7 430.4921 3.9464 430 0 L 296 0 C 295.5079 3.9464 292.0797 7 288 7 C 283.9203 7 280.4921 3.9464 280 0 L 146 0 C 145.5079 3.9464 142.0797 7 138 7 C 133.9203 7 130.4921 3.9464 130 0 L 10 0 Z" fill="#ffffff"/>
		<path d="M 10 0 C 4.4771 0 0 4.4771 0 10 L 0 100 C 0 105.5229 4.4771 110 10 110 L 10 0 Z" fill="#ffa244"/>
	</g>
</svg>